{
  "accessors": [
    {
      "bufferView": 2,
      "componentType": 5126,
      "count": 2884,
      "max": [
        50.0,
        50.20710754394531,
        509.20330810546875
      ],
      "min": [
        -50.0,
        -50.0,
        0.342193603515625
      ],
      "type": "VEC3"
    },
    {
      "bufferView": 2,
      "byteOffset": 34608,
      "componentType": 5126,
      "count": 2884,
      "max": [
        1.0,
        1.0,
        1.7490971515599085e-07
      ],
      "min": [
        -1.0,
        -1.0,
        -1.7490971515599085e-07
      ],
      "type": "VEC3"
    },
    {
      "bufferView": 1,
      "componentType": 5126,
      "count": 2884,
      "max": [
        1.0,
        1.0
      ],
      "min": [
        0.0,
        0.04621867090463638
      ],
      "type": "VEC2"
    },
    {
      "bufferView": 0,
      "componentType": 5125,
      "count": 4326,
      "type": "SCALAR"
    },
    {
      "bufferView": 2,
      "byteOffset": 69216,
      "componentType": 5126,
      "count": 16474,
      "max": [
        55.0,
        54.9999885559082,
        524.7748413085938
      ],
      "min": [
        -55.0,
        -55.0000114440918,
        -0.157806396484375
      ],
      "type": "VEC3"
    },
    {
      "bufferView": 2,
      "byteOffset": 266904,
      "componentType": 5126,
      "count": 16474,
      "max": [
        1.0,
        1.0,
        1.0
      ],
      "min": [
        -1.0,
        -1.0,
        -1.0
      ],
      "type": "VEC3"
    },
    {
      "bufferView": 1,
      "byteOffset": 23072,
      "componentType": 5126,
      "count": 16474,
      "max": [
        1.0075067281723022,
        1.0287221670150757
      ],
      "min": [
        -0.0398133359849453,
        0.0
      ],
      "type": "VEC2"
    },
    {
      "bufferView": 0,
      "byteOffset": 17304,
      "componentType": 5125,
      "count": 32952,
      "type": "SCALAR"
    }
  ],
  "asset": {
    "extras": {
      "author": "Anthony Yanez (https://sketchfab.com/paulyanez)",
      "license": "CC-BY-4.0 (http://creativecommons.org/licenses/by/4.0/)",
      "source": "https://sketchfab.com/3d-models/skyscraper-334dd2aed8844c38837fa2639f2f2bbb",
      "title": "Skyscraper"
    },
    "generator": "Sketchfab-12.66.0",
    "version": "2.0"
  },
  "bufferViews": [
    {
      "buffer": 0,
      "byteLength": 149112,
      "name": "floatBufferViews",
      "target": 34963
    },
    {
      "buffer": 0,
      "byteLength": 154864,
      "byteOffset": 149112,
      "byteStride": 8,
      "name": "floatBufferViews",
      "target": 34962
    },
    {
      "buffer": 0,
      "byteLength": 464592,
      "byteOffset": 303976,
      "byteStride": 12,
      "name": "floatBufferViews",
      "target": 34962
    }
  ],
  "buffers": [
    {
      "byteLength": 768568,
      "uri": "scene.bin"
    }
  ],
  "materials": [
    {
      "doubleSided": true,
      "emissiveFactor": [
        0.6243602781169354,
        0.5610399626125103,
        0.045094179912462555
      ],
      "name": "01_-_Default",
      "pbrMetallicRoughness": {
        "baseColorFactor": [
          0.960784,
          0.960784,
          0.960784,
          1.0
        ],
        "roughnessFactor": 0.0
      }
    },
    {
      "doubleSided": true,
      "name": "02_-_Default",
      "pbrMetallicRoughness": {
        "baseColorFactor": [
          0.301961,
          0.301961,
          0.301961,
          1.0
        ],
        "metallicFactor": 0.4563877453,
        "roughnessFactor": 0.8929713596
      }
    }
  ],
  "meshes": [
    {
      "name": "Skyscraper_01 - Default_0",
      "primitives": [
        {
          "attributes": {
            "NORMAL": 1,
            "POSITION": 0,
            "TEXCOORD_0": 2
          },
          "indices": 3,
          "material": 0,
          "mode": 4
        }
      ]
    },
    {
      "name": "Skyscraper_02 - Default_0",
      "primitives": [
        {
          "attributes": {
            "NORMAL": 5,
            "POSITION": 4,
            "TEXCOORD_0": 6
          },
          "indices": 7,
          "material": 1,
          "mode": 4
        }
      ]
    }
  ],
  "nodes": [
    {
      "children": [
        1
      ],
      "matrix": [
        1.0,
        0.0,
        0.0,
        0.0,
        0.0,
        2.220446049250313e-16,
        -1.0,
        0.0,
        0.0,
        1.0,
        2.220446049250313e-16,
        0.0,
        0.0,
        0.0,
        0.0,
        1.0
      ],
      "name": "Sketchfab_model"
    },
    {
      "children": [
        2
      ],
      "matrix": [
        1.0,
        0.0,
        0.0,
        0.0,
        0.0,
        0.0,
        1.0,
        0.0,
        0.0,
        -1.0,
        0.0,
        0.0,
        0.0,
        0.0,
        0.0,
        1.0
      ],
      "name": "7efdea6ab697441a9cded4474a2630eb.fbx"
    },
    {
      "children": [
        3
      ],
      "name": "RootNode"
    },
    {
      "children": [
        4,
        5
      ],
      "matrix": [
        1.0,
        0.0,
        0.0,
        0.0,
        0.0,
        2.220446049250313e-16,
        -1.0,
        0.0,
        0.0,
        1.0,
        2.220446049250313e-16,
        0.0,
        0.8741598129272461,
        0.0,
        0.5802469253540039,
        1.0
      ],
      "name": "Skyscraper"
    },
    {
      "mesh": 0,
      "name": "Skyscraper_01 - Default_0"
    },
    {
      "mesh": 1,
      "name": "Skyscraper_02 - Default_0"
    }
  ],
  "scene": 0,
  "scenes": [
    {
      "name": "Sketchfab_Scene",
      "nodes": [
        0
      ]
    }
  ]
}
